# xmcd CD database file
#
# Track frame offsets:
#	150
#	26257
#	43750
#	62317
#	83007
#	100500
#	126840
#	174577
#	194285
#	207897
#
# Disc length: 3108 seconds
#
# Revision: 2
# Processed by: cddbd v1.5.2PL0 Copyright (c) Steve Scherf et al.
# Submitted via: CDex 1.51
#
DISCID=750c220a
DTITLE=James Cotton - Fire Down Under The Hill
DYEAR=2000
DGENRE=Blues
TTITLE0=Cotton Jump Boogie
TTITLE1=That's All Right
TTITLE2=Young Fashioned Ways
TTITLE3=Boot Knockin' Boogie
TTITLE4=Lightning
TTITLE5=Feel Like Going Home
TTITLE6=Fire Down Under The Hill
TTITLE7=Woman Wanted
TTITLE8=Reconsider Baby
TTITLE9=Something To Remember You By
EXTD=YEAR: 2000
EXTT0=
EXTT1=
EXTT2=
EXTT3=
EXTT4=
EXTT5=
EXTT6=
EXTT7=
EXTT8=
EXTT9=
PLAYORDER=
